<svg xmlns="http://www.w3.org/2000/svg" xmlns:xlink="http://www.w3.org/1999/xlink" viewBox="0 0 1281 720"><defs><style>.cls-1,.cls-2,.cls-3{fill:none;}.cls-1,.cls-2{stroke:#000;stroke-miterlimit:10;}.cls-2{stroke-width:0.5px;}.cls-3{stroke-linecap:round;stroke-linejoin:round;stroke-width:4px;stroke:url(#Degradado_sin_nombre_21);}.cls-4,.cls-6{font-size:20.13px;font-family:MyriadPro-Regular, Myriad Pro;}.cls-5{fill:#0886ea;}.cls-6,.cls-8{fill:#fff;}.cls-7{fill:#d71722;}</style><linearGradient id="Degradado_sin_nombre_21" x1="538.94" y1="448.35" x2="538.94" y2="130.6" gradientUnits="userSpaceOnUse"><stop offset="0.32" stop-color="blue"/><stop offset="0.35" stop-color="#50a"/><stop offset="0.4" stop-color="red"/></linearGradient></defs><title>graficoSVG4Recurso 4</title><g id="Capa_2" data-name="Capa 2"><g id="Capa_1-2" data-name="Capa 1"><polyline class="cls-1" points="182.82 68 182.82 485.78 895.9 485.78"/><rect class="cls-2" x="837.18" y="434.61" width="50.33" height="50.33"/><rect class="cls-2" x="786.84" y="434.61" width="50.33" height="50.33"/><rect class="cls-2" x="736.51" y="434.61" width="50.33" height="50.33"/><rect class="cls-2" x="686.17" y="434.61" width="50.33" height="50.33"/><rect class="cls-2" x="635.84" y="434.61" width="50.33" height="50.33"/><rect class="cls-2" x="585.5" y="434.61" width="50.33" height="50.33"/><rect class="cls-2" x="535.17" y="434.61" width="50.33" height="50.33"/><rect class="cls-2" x="484.83" y="434.61" width="50.33" height="50.33"/><rect class="cls-2" x="434.5" y="434.61" width="50.33" height="50.33"/><rect class="cls-2" x="384.16" y="434.61" width="50.33" height="50.33"/><rect class="cls-2" x="333.83" y="434.61" width="50.33" height="50.33"/><rect class="cls-2" x="283.49" y="434.61" width="50.33" height="50.33"/><rect class="cls-2" x="233.16" y="434.61" width="50.33" height="50.33"/><rect class="cls-2" x="182.82" y="434.61" width="50.33" height="50.33"/><rect class="cls-2" x="837.18" y="384.27" width="50.33" height="50.33"/><rect class="cls-2" x="786.84" y="384.27" width="50.33" height="50.33"/><rect class="cls-2" x="736.51" y="384.27" width="50.33" height="50.33"/><rect class="cls-2" x="686.17" y="384.27" width="50.33" height="50.33"/><rect class="cls-2" x="635.84" y="384.27" width="50.33" height="50.33"/><rect class="cls-2" x="585.5" y="384.27" width="50.33" height="50.33"/><rect class="cls-2" x="535.17" y="384.27" width="50.33" height="50.33"/><rect class="cls-2" x="484.83" y="384.27" width="50.33" height="50.33"/><rect class="cls-2" x="434.5" y="384.27" width="50.33" height="50.33"/><rect class="cls-2" x="384.16" y="384.27" width="50.33" height="50.33"/><rect class="cls-2" x="333.83" y="384.27" width="50.33" height="50.33"/><rect class="cls-2" x="283.49" y="384.27" width="50.33" height="50.33"/><rect class="cls-2" x="233.16" y="384.27" width="50.33" height="50.33"/><rect class="cls-2" x="182.82" y="384.27" width="50.33" height="50.33"/><rect class="cls-2" x="837.18" y="333.94" width="50.33" height="50.33"/><rect class="cls-2" x="786.84" y="333.94" width="50.33" height="50.33"/><rect class="cls-2" x="736.51" y="333.94" width="50.33" height="50.33"/><rect class="cls-2" x="686.17" y="333.94" width="50.33" height="50.33"/><rect class="cls-2" x="635.84" y="333.94" width="50.33" height="50.33"/><rect class="cls-2" x="585.5" y="333.94" width="50.33" height="50.33"/><rect class="cls-2" x="535.17" y="333.94" width="50.33" height="50.33"/><rect class="cls-2" x="484.83" y="333.94" width="50.33" height="50.33"/><rect class="cls-2" x="434.5" y="333.94" width="50.33" height="50.33"/><rect class="cls-2" x="384.16" y="333.94" width="50.33" height="50.33"/><rect class="cls-2" x="333.83" y="333.94" width="50.33" height="50.33"/><rect class="cls-2" x="283.49" y="333.94" width="50.33" height="50.33"/><rect class="cls-2" x="233.16" y="333.94" width="50.33" height="50.33"/><rect class="cls-2" x="182.82" y="333.94" width="50.33" height="50.33"/><rect class="cls-2" x="837.18" y="283.6" width="50.33" height="50.33"/><rect class="cls-2" x="786.84" y="283.6" width="50.33" height="50.33"/><rect class="cls-2" x="736.51" y="283.6" width="50.33" height="50.33"/><rect class="cls-2" x="686.17" y="283.6" width="50.33" height="50.33"/><rect class="cls-2" x="635.84" y="283.6" width="50.33" height="50.33"/><rect class="cls-2" x="585.5" y="283.6" width="50.33" height="50.33"/><rect class="cls-2" x="535.17" y="283.6" width="50.33" height="50.33"/><rect class="cls-2" x="484.83" y="283.6" width="50.33" height="50.33"/><rect class="cls-2" x="434.5" y="283.6" width="50.33" height="50.33"/><rect class="cls-2" x="384.16" y="283.6" width="50.33" height="50.33"/><rect class="cls-2" x="333.83" y="283.6" width="50.33" height="50.33"/><rect class="cls-2" x="283.49" y="283.6" width="50.33" height="50.33"/><rect class="cls-2" x="233.16" y="283.6" width="50.33" height="50.33"/><rect class="cls-2" x="182.82" y="283.6" width="50.33" height="50.33"/><rect class="cls-2" x="837.18" y="233.27" width="50.33" height="50.33"/><rect class="cls-2" x="786.84" y="233.27" width="50.33" height="50.33"/><rect class="cls-2" x="736.51" y="233.27" width="50.33" height="50.33"/><rect class="cls-2" x="686.17" y="233.27" width="50.33" height="50.33"/><rect class="cls-2" x="635.84" y="233.27" width="50.33" height="50.33"/><rect class="cls-2" x="585.5" y="233.27" width="50.33" height="50.33"/><rect class="cls-2" x="535.17" y="233.27" width="50.33" height="50.33"/><rect class="cls-2" x="484.83" y="233.27" width="50.33" height="50.33"/><rect class="cls-2" x="434.5" y="233.27" width="50.33" height="50.33"/><rect class="cls-2" x="384.16" y="233.27" width="50.33" height="50.33"/><rect class="cls-2" x="333.83" y="233.27" width="50.33" height="50.33"/><rect class="cls-2" x="283.49" y="233.27" width="50.33" height="50.33"/><rect class="cls-2" x="233.16" y="233.27" width="50.33" height="50.33"/><rect class="cls-2" x="182.82" y="233.27" width="50.33" height="50.33"/><rect class="cls-2" x="837.18" y="182.93" width="50.33" height="50.33"/><rect class="cls-2" x="786.84" y="182.93" width="50.33" height="50.33"/><rect class="cls-2" x="736.51" y="182.93" width="50.33" height="50.33"/><rect class="cls-2" x="686.17" y="182.93" width="50.33" height="50.33"/><rect class="cls-2" x="635.84" y="182.93" width="50.33" height="50.33"/><rect class="cls-2" x="585.5" y="182.93" width="50.33" height="50.33"/><rect class="cls-2" x="535.17" y="182.93" width="50.33" height="50.33"/><rect class="cls-2" x="484.83" y="182.93" width="50.33" height="50.33"/><rect class="cls-2" x="434.5" y="182.93" width="50.33" height="50.33"/><rect class="cls-2" x="384.16" y="182.93" width="50.33" height="50.33"/><rect class="cls-2" x="333.83" y="182.93" width="50.33" height="50.33"/><rect class="cls-2" x="283.49" y="182.93" width="50.33" height="50.33"/><rect class="cls-2" x="233.16" y="182.93" width="50.33" height="50.33"/><rect class="cls-2" x="182.82" y="182.93" width="50.33" height="50.33"/><rect class="cls-2" x="837.18" y="132.6" width="50.33" height="50.33"/><rect class="cls-2" x="786.84" y="132.6" width="50.33" height="50.33"/><rect class="cls-2" x="736.51" y="132.6" width="50.33" height="50.33"/><rect class="cls-2" x="686.17" y="132.6" width="50.33" height="50.33"/><rect class="cls-2" x="635.84" y="132.6" width="50.33" height="50.33"/><rect class="cls-2" x="585.5" y="132.6" width="50.33" height="50.33"/><rect class="cls-2" x="535.17" y="132.6" width="50.33" height="50.33"/><rect class="cls-2" x="484.83" y="132.6" width="50.33" height="50.33"/><rect class="cls-2" x="434.5" y="132.6" width="50.33" height="50.33"/><rect class="cls-2" x="384.16" y="132.6" width="50.33" height="50.33"/><rect class="cls-2" x="333.83" y="132.6" width="50.33" height="50.33"/><rect class="cls-2" x="283.49" y="132.6" width="50.33" height="50.33"/><rect class="cls-2" x="233.16" y="132.6" width="50.33" height="50.33"/><rect class="cls-2" x="182.82" y="132.6" width="50.33" height="50.33"/><rect class="cls-2" x="837.18" y="82.26" width="50.33" height="50.33"/><rect class="cls-2" x="786.84" y="82.26" width="50.33" height="50.33"/><rect class="cls-2" x="736.51" y="82.26" width="50.33" height="50.33"/><rect class="cls-2" x="686.17" y="82.26" width="50.33" height="50.33"/><rect class="cls-2" x="635.84" y="82.26" width="50.33" height="50.33"/><rect class="cls-2" x="585.5" y="82.26" width="50.33" height="50.33"/><rect class="cls-2" x="535.17" y="82.26" width="50.33" height="50.33"/><rect class="cls-2" x="484.83" y="82.26" width="50.33" height="50.33"/><rect class="cls-2" x="434.5" y="82.26" width="50.33" height="50.33"/><rect class="cls-2" x="384.16" y="82.26" width="50.33" height="50.33"/><rect class="cls-2" x="333.83" y="82.26" width="50.33" height="50.33"/><rect class="cls-2" x="283.49" y="82.26" width="50.33" height="50.33"/><rect class="cls-2" x="233.16" y="82.26" width="50.33" height="50.33"/><rect class="cls-2" x="182.82" y="82.26" width="50.33" height="50.33"/><polyline class="cls-3" points="182.82 339.06 187.02 332.26 192.44 333.94 202.12 370.85 207.15 375.88 212.18 377.56 217.22 389.31 222.25 347.36 227.28 340.65 233.16 404.86 237.35 374.2 242.38 390.98 250.77 396.02 254.13 401.05 264.2 335.61 269.23 344 274.26 387.63 283.49 349.58 294.4 394.34 304.46 446.35 307.82 397.69 314.53 390.98 319.56 407.76 324.6 441.32 329.63 446.35 333.83 439.91 339.7 441.32 344.73 406.08 349.76 412.79 354.8 377.56 359.83 362.46 364.87 397.69 369.9 406.08 374.93 387.63 381.64 385.95 384.16 379.51 390.03 377.56 396.75 394.34 405.13 394.34 416.88 362.46 426.94 385.95 431.98 401.05 437.01 360.78 442.05 354.07 452.11 387.63 457.15 367.49 463.86 370.85 468.89 362.46 472.25 337.29 477.28 357.43 483.99 333.94 492.38 246.69 497.41 302.06 502.45 305.41 507.48 253.4 514.19 261.79 519.23 337.29 527.62 359.1 534.33 355.75 539.36 355.75 547.75 312.13 554.46 308.77 559.49 357.43 564.53 367.49 569.56 359.1 574.6 307.09 579.63 303.74 585.5 314.79 589.7 315.48 596.41 310.45 603.12 312.13 609.83 362.46 619.9 330.58 624.93 338.97 631.64 332.26 635 286.96 645.06 354.07 650.1 305.41 655.13 298.7 660.16 338.97 665.2 347.36 671.61 333.94 675.26 285.28 680.3 305.41 686.17 273.26 692.04 268.5 702.11 278.57 705.47 258.43 710.5 285.28 717.21 290.31 722.24 280.25 727.28 243.33 737.34 268.5 742.38 239.98 747.41 251.72 752.45 276.89 760.83 268.5 765.87 245.01 772.58 258.43 777.61 214.81 784.32 203.06 789.36 256.76 794.39 246.69 797.75 218.17 807.81 203.06 812.85 211.46 817.88 206.42 826.27 211.46 827.95 228.23 834.48 233.27 838.01 199.71 844.73 193 849.76 224.88 853.12 206.42 859.83 199.71 868.22 146.02 874.93 132.6 884.99 161.12 890.03 140.99 895.06 142.66"/><text class="cls-4" transform="translate(161.97 518.11)">1880</text><text class="cls-4" transform="translate(212.3 518.11)">1890</text><text class="cls-4" transform="translate(260.96 518.11)">1900</text><text class="cls-4" transform="translate(311.29 518.11)">1910</text><text class="cls-4" transform="translate(361.63 518.11)">1920</text><text class="cls-4" transform="translate(413.64 518.11)">1930</text><text class="cls-4" transform="translate(462.3 518.11)">1940</text><text class="cls-4" transform="translate(515.99 518.11)">1950</text><text class="cls-4" transform="translate(562.97 518.11)">1960</text><text class="cls-4" transform="translate(613.3 518.11)">1970</text><text class="cls-4" transform="translate(663.64 518.11)">1980</text><text class="cls-4" transform="translate(713.97 518.11)">1990</text><text class="cls-4" transform="translate(764.31 518.11)">2000</text><text class="cls-4" transform="translate(814.64 518.11)">2010</text><text class="cls-4" transform="translate(864.98 518.11)">2020</text><text class="cls-4" transform="translate(127.21 137.66)">0,8ºC</text><text class="cls-4" transform="translate(127.21 90.68)">1,0ºC</text><text class="cls-4" transform="translate(127.21 189.68)">0,6ºC</text><text class="cls-4" transform="translate(127.21 241.69)">0,4ºC</text><text class="cls-4" transform="translate(127.21 290.35)">0,2ºC</text><text class="cls-4" transform="translate(127.21 339)">0,0ºC</text><text class="cls-4" transform="translate(123.86 389.34)">-0,2ºC</text><text class="cls-4" transform="translate(123.86 439.67)">-0,4ºC</text><text class="cls-4" transform="translate(123.86 490.01)">-0,6ºC</text><polygon class="cls-5" points="187.85 284.44 280.13 284.44 280.13 314.64 198.73 314.64 187.85 324.71 187.85 284.44"/><text class="cls-6" transform="translate(201.04 305.45)">-0,02ºC</text><polygon class="cls-7" points="783.49 93.17 875.77 93.17 875.77 123.37 794.36 123.37 783.49 123.37 783.49 93.17"/><text class="cls-6" transform="translate(796.67 114.17)">+0,76ºC</text><polyline class="cls-7" points="862.34 123.37 875.77 134.97 875.77 119.65"/><rect class="cls-8" width="17" height="17"/><rect class="cls-8" x="1273" y="712" width="8" height="8"/></g></g></svg>